<svg width="173" height="172" viewBox="0 0 173 172" fill="none" xmlns="http://www.w3.org/2000/svg">
<g id="Dinner" filter="url(#filter0_d_6_20)">
<path id="Vector" d="M158.687 51.25C157.333 51.2496 155.992 51.5145 154.74 52.0295C153.489 52.5444 152.352 53.2994 151.394 54.2513C150.437 55.2032 149.677 56.3333 149.159 57.577C148.641 58.8208 148.374 60.1538 148.375 61.5C148.38 63.9312 149.268 66.2787 150.876 68.1112L148.504 112.75H135.484V109.291C137.153 106.451 138.042 103.226 138.062 99.9375V87.125C138.056 85.088 137.239 83.1361 135.79 81.6957C134.341 80.2553 132.377 79.4434 130.328 79.4375H127.75V71.3913C129.958 70.8246 131.915 69.5465 133.314 67.7568C134.714 65.967 135.477 63.7667 135.484 61.5V53.8125C135.482 53.1335 135.21 52.4829 134.727 52.0028C134.244 51.5227 133.589 51.252 132.906 51.25H117.437C116.754 51.252 116.1 51.5227 115.617 52.0028C115.133 52.4829 114.861 53.1335 114.859 53.8125V61.5C114.867 63.7667 115.63 65.967 117.029 67.7568C118.429 69.5465 120.385 70.8246 122.594 71.3913V79.4375H112.281V76.875C112.278 70.5234 109.903 64.3991 105.616 59.6886C101.329 54.9781 95.4359 52.0167 89.078 51.3781V48.6875C89.078 48.0079 88.8064 47.3561 88.3229 46.8755C87.8394 46.395 87.1836 46.125 86.4999 46.125C85.8161 46.125 85.1603 46.395 84.6768 46.8755C84.1934 47.3561 83.9217 48.0079 83.9217 48.6875V51.3781C77.5638 52.0167 71.6706 54.9781 67.3839 59.6886C63.0972 64.3991 60.722 70.5234 60.7187 76.875V79.4375H50.4062V71.3913C52.6143 70.8246 54.5712 69.5465 55.9706 67.7568C57.3701 65.967 58.1332 63.7667 58.1405 61.5V53.8125C58.1385 53.1335 57.8662 52.4829 57.3832 52.0028C56.9001 51.5227 56.2455 51.252 55.5624 51.25H40.0937C39.4106 51.252 38.756 51.5227 38.2729 52.0028C37.7899 52.4829 37.5176 53.1335 37.5156 53.8125V61.5C37.5229 63.7667 38.286 65.967 39.6855 67.7568C41.0849 69.5465 43.0418 70.8246 45.2499 71.3913V79.4375H42.6718C40.6224 79.4434 38.6586 80.2553 37.2094 81.6957C35.7602 83.1361 34.9434 85.088 34.9375 87.125V99.9375C34.9576 103.226 35.8466 106.451 37.5156 109.291V112.75H24.4961L22.1242 68.1112C23.7315 66.2787 24.6195 63.9312 24.625 61.5C24.6358 59.8387 24.2402 58.1997 23.4722 56.7242C22.7043 55.2486 21.587 53.9807 20.2166 53.0296C18.8462 52.0785 17.2637 51.4727 15.6055 51.2644C13.9472 51.0561 12.2629 51.2515 10.6975 51.8339C9.13216 52.4162 7.73265 53.368 6.61951 54.6073C5.50638 55.8466 4.71299 57.3363 4.30766 58.948C3.90233 60.5597 3.8972 62.2452 4.29273 63.8593C4.68825 65.4734 5.47257 66.9678 6.57814 68.2138V161.438C6.58018 162.116 6.85246 162.767 7.33551 163.247C7.81856 163.727 8.47313 163.998 9.15626 164H19.4687C20.1519 163.998 20.8064 163.727 21.2895 163.247C21.7725 162.767 22.0448 162.116 22.0469 161.438V130.688H37.5156V161.438C37.5176 162.116 37.7899 162.767 38.2729 163.247C38.756 163.727 39.4106 163.998 40.0937 164H60.7187C61.4018 163.998 62.0564 163.727 62.5394 163.247C63.0225 162.767 63.2947 162.116 63.2968 161.438V119.848C66.5301 119.241 69.6022 117.976 72.3202 116.132C76.5102 118.938 81.4475 120.437 86.4999 120.437C91.5522 120.437 96.4895 118.938 100.68 116.132C103.397 117.976 106.47 119.241 109.703 119.848V161.438C109.705 162.116 109.977 162.767 110.46 163.247C110.943 163.727 111.598 163.998 112.281 164H132.906C133.589 163.998 134.244 163.727 134.727 163.247C135.21 162.767 135.482 162.116 135.484 161.438V130.688H150.953V161.438C150.955 162.116 151.227 162.767 151.71 163.247C152.193 163.727 152.848 163.998 153.531 164H163.843C164.527 163.998 165.181 163.727 165.664 163.247C166.147 162.767 166.42 162.116 166.422 161.438V68.2138C167.735 66.7393 168.59 64.9188 168.885 62.9717C169.18 61.0247 168.902 59.0344 168.085 57.2409C167.267 55.4475 165.945 53.9275 164.277 52.8645C162.61 51.8014 160.668 51.2407 158.687 51.25ZM9.15626 61.5C9.15626 60.4864 9.45867 59.4955 10.0252 58.6527C10.5918 57.8099 11.3971 57.153 12.3393 56.7651C13.2815 56.3772 14.3182 56.2757 15.3184 56.4735C16.3186 56.6712 17.2374 57.1593 17.9585 57.8761C18.6796 58.5928 19.1707 59.506 19.3697 60.5002C19.5686 61.4943 19.4665 62.5248 19.0762 63.4613C18.686 64.3977 18.0251 65.1981 17.1772 65.7613C16.3292 66.3244 15.3323 66.625 14.3125 66.625C12.9462 66.621 11.637 66.0798 10.6709 65.1195C9.70482 64.1592 9.16028 62.858 9.15626 61.5ZM19.3398 112.75H11.7344V71.3913C12.5755 71.6162 13.4415 71.7367 14.3125 71.75C15.2651 71.7364 16.2111 71.5898 17.1227 71.3144L19.3398 112.75ZM16.8906 158.875H11.7344V130.688H16.8906V158.875ZM37.5156 125.562H11.7344V117.875H37.5156V125.562ZM120.015 61.5V56.375H130.328V61.5C130.328 62.8592 129.785 64.1628 128.818 65.1239C127.851 66.085 126.539 66.625 125.172 66.625C123.804 66.625 122.493 66.085 121.526 65.1239C120.559 64.1628 120.015 62.8592 120.015 61.5ZM65.8749 76.875C65.8749 71.4381 68.0479 66.2238 71.9158 62.3793C75.7837 58.5348 81.0298 56.375 86.4999 56.375C91.9699 56.375 97.216 58.5348 101.084 62.3793C104.952 66.2238 107.125 71.4381 107.125 76.875V79.4375H65.8749V76.875ZM42.6718 61.5V56.375H52.9843V61.5C52.9843 62.8592 52.4411 64.1628 51.4741 65.1239C50.5071 66.085 49.1956 66.625 47.8281 66.625C46.4605 66.625 45.149 66.085 44.182 65.1239C43.2151 64.1628 42.6718 62.8592 42.6718 61.5ZM47.8281 158.875H42.6718V115.184C44.2532 116.428 45.9855 117.47 47.8281 118.285V158.875ZM58.1405 158.875H52.9843V130.688H58.1405V158.875ZM58.1405 125.562H52.9843V119.899C54.6806 120.25 56.408 120.43 58.1405 120.438V125.562ZM120.015 158.875H114.859V130.688H120.015V158.875ZM120.015 125.562H114.859V120.438C116.592 120.43 118.319 120.25 120.015 119.899V125.562ZM130.328 158.875H125.172V118.285C127.014 117.47 128.746 116.428 130.328 115.184V158.875ZM132.906 92.25H120.015C119.332 92.25 118.676 92.52 118.192 93.0005C117.709 93.4811 117.437 94.1329 117.437 94.8125C117.437 95.4921 117.709 96.1439 118.192 96.6245C118.676 97.105 119.332 97.375 120.015 97.375H132.906V99.9375C132.906 108.419 124.811 115.312 114.859 115.312C110.299 115.361 105.865 113.819 102.33 110.956C101.865 110.575 101.282 110.367 100.68 110.367C100.077 110.367 99.494 110.575 99.0295 110.956C95.4697 113.777 91.0522 115.313 86.4999 115.313C81.9475 115.313 77.53 113.777 73.9702 110.956C73.5076 110.571 72.9235 110.36 72.3202 110.36C71.7169 110.36 71.1328 110.571 70.6702 110.956C67.1344 113.819 62.701 115.361 58.1405 115.312C48.189 115.312 40.0937 108.419 40.0937 99.9375V97.375H109.703C110.387 97.375 111.042 97.105 111.526 96.6245C112.009 96.1439 112.281 95.4921 112.281 94.8125C112.281 94.1329 112.009 93.4811 111.526 93.0005C111.042 92.52 110.387 92.25 109.703 92.25H40.0937V87.125C40.0957 86.446 40.368 85.7954 40.8511 85.3153C41.3341 84.8352 41.9887 84.5645 42.6718 84.5625H130.328C131.011 84.5645 131.666 84.8352 132.149 85.3153C132.632 85.7954 132.904 86.446 132.906 87.125V92.25ZM161.265 158.875H156.109V130.688H161.265V158.875ZM161.265 125.562H135.484V117.875H161.265V125.562ZM161.265 112.75H153.66L155.877 71.3144C156.789 71.5898 157.735 71.7364 158.687 71.75C159.558 71.7367 160.424 71.6162 161.265 71.3913V112.75ZM158.687 66.625C157.667 66.625 156.67 66.3244 155.823 65.7613C154.975 65.1981 154.314 64.3977 153.923 63.4613C153.533 62.5248 153.431 61.4943 153.63 60.5002C153.829 59.506 154.32 58.5928 155.041 57.8761C155.762 57.1593 156.681 56.6712 157.681 56.4735C158.681 56.2757 159.718 56.3772 160.66 56.7651C161.603 57.153 162.408 57.8099 162.974 58.6527C163.541 59.4955 163.843 60.4864 163.843 61.5C163.839 62.858 163.295 64.1592 162.329 65.1195C161.363 66.0798 160.053 66.621 158.687 66.625Z" fill="black"/>
<path id="Vector_2" d="M60.7186 38.4375H112.281C112.62 38.4376 112.955 38.3714 113.268 38.2426C113.581 38.1139 113.865 37.9251 114.104 37.6872C114.344 37.4492 114.534 37.1667 114.663 36.8557C114.793 36.5448 114.859 36.2115 114.859 35.875C114.849 28.847 112.201 22.0756 107.433 16.8861C102.664 11.6967 96.119 8.46275 89.078 7.81732V2.5625C89.078 1.88288 88.8063 1.2311 88.3228 0.750539C87.8394 0.269977 87.1836 0 86.4998 0C85.8161 0 85.1603 0.269977 84.6768 0.750539C84.1933 1.2311 83.9217 1.88288 83.9217 2.5625V7.81732C76.8807 8.46275 70.3355 11.6967 65.5671 16.8861C60.7987 22.0756 58.1504 28.847 58.1405 35.875C58.1404 36.2115 58.2071 36.5448 58.3366 36.8557C58.4661 37.1667 58.656 37.4492 58.8954 37.6872C59.1349 37.9251 59.4191 38.1139 59.7319 38.2426C60.0448 38.3714 60.38 38.4376 60.7186 38.4375ZM86.4998 12.8125C92.2053 12.8195 97.7087 14.9127 101.961 18.6933C106.214 22.4739 108.918 27.6775 109.559 33.3125H63.4403C64.0812 27.6775 66.7857 22.4739 71.0383 18.6933C75.2909 14.9127 80.7944 12.8195 86.4998 12.8125Z" fill="black"/>
</g>
<defs>
<filter id="filter0_d_6_20" x="-0.000175476" y="0" width="173" height="172" filterUnits="userSpaceOnUse" color-interpolation-filters="sRGB">
<feFlood flood-opacity="0" result="BackgroundImageFix"/>
<feColorMatrix in="SourceAlpha" type="matrix" values="0 0 0 0 0 0 0 0 0 0 0 0 0 0 0 0 0 0 127 0" result="hardAlpha"/>
<feOffset dy="4"/>
<feGaussianBlur stdDeviation="2"/>
<feComposite in2="hardAlpha" operator="out"/>
<feColorMatrix type="matrix" values="0 0 0 0 0 0 0 0 0 0 0 0 0 0 0 0 0 0 0.25 0"/>
<feBlend mode="normal" in2="BackgroundImageFix" result="effect1_dropShadow_6_20"/>
<feBlend mode="normal" in="SourceGraphic" in2="effect1_dropShadow_6_20" result="shape"/>
</filter>
</defs>
</svg>
