<svg width="72" height="65" viewBox="0 0 72 65" fill="none" xmlns="http://www.w3.org/2000/svg">
<path d="M5.96521 32.5C5.96521 22.2863 5.96521 17.1794 10.3331 14.0064C14.701 10.8334 21.7311 10.8334 35.7912 10.8334C49.8512 10.8334 56.8813 10.8334 61.2492 14.0064C65.6171 17.1794 65.6171 22.2863 65.6171 32.5C65.6171 42.7138 65.6171 47.8207 61.2492 50.9937C56.8813 54.1667 49.8512 54.1667 35.7912 54.1667C21.7311 54.1667 14.701 54.1667 10.3331 50.9937C5.96521 47.8207 5.96521 42.7138 5.96521 32.5Z" stroke="black" stroke-width="1.5" stroke-linecap="round" stroke-linejoin="round"/>
<path d="M61.6401 14.3817L47.2476 26.5392C41.7697 30.6844 39.0307 32.757 35.7912 32.757C32.5516 32.757 29.8126 30.6844 24.3347 26.5392L9.94226 14.3817" stroke="black" stroke-width="1.5" stroke-linecap="round" stroke-linejoin="round"/>
</svg>
